# AST/ASF file generated using VICON BodyLanguage
# -----------------------------------------------
:version 1.10
:name VICON
:units
  mass 1.0
  length 0.45
  angle deg
:documentation
   .ast/.asf automatically generated from VICON data using
   VICON BodyBuilder and BodyLanguage model FoxedUp or BRILLIANT.MOD
:root
   order TX TY TZ RX RY RZ
   axis XYZ
   position 0 0 0  
   orientation 0 0 0 
:bonedata
  begin
     id 1 
     name lhipjoint
     direction 0.560651 -0.75055 0.34978 
     length 2.44936 
     axis 0 0 0  XYZ
  end
  begin
     id 2 
     name lfemur
     direction 0.34202 -0.939693 0  
     length 7.42139  
     axis 0 0 20  XYZ
    dof rx ry rz
    limits (-160.0 20.0)
           (-70.0 70.0)
           (-60.0 70.0)
  end
  begin
     id 3 
     name ltibia
     direction 0.34202 -0.939693 0   
     length 7.75674   
     axis 0 0 20   XYZ
    dof rx
    limits (-10.0 170.0)
  end
  begin
     id 4 
     name lfoot
     direction 0.0925879 -0.254383 0.962661   
     length 2.38688   
     axis -90 7.62852e-016 20   XYZ
    dof rx rz
    limits (-45.0 90.0)
           (-70.0 20.0)
  end
  begin
     id 5 
     name ltoes
     direction 1.53567e-011 -4.21973e-011 1   
     length 1.19228   
     axis -90 7.62852e-016 20   XYZ
    dof rx
    limits (-90.0 20.0)
  end
  begin
     id 6 
     name rhipjoint
     direction -0.540087 -0.762838 0.355506   
     length 2.4099  
     axis 0 0 0  XYZ 
  end
  begin
     id 7 
     name rfemur
     direction -0.34202 -0.939693 0   
     length 7.70794   
     axis 0 0 -20   XYZ
    dof rx ry rz
    limits (-160.0 20.0)
           (-70.0 70.0)
           (-70.0 60.0)
  end
  begin
     id 8 
     name rtibia
     direction -0.34202 -0.939693 0   
     length 7.66106   
     axis 0 0 -20   XYZ
    dof rx
    limits (-10.0 170.0)
 end
 begin
     id 9 
     name rfoot
     direction -0.0830975 -0.228308 0.970036   
     length 2.4989  
     axis -90 -7.62852e-016 -20   XYZ
    dof rx rz
    limits (-45.0 90.0)
           (-20.0 70.0)
  end
  begin
     id 10 
     name rtoes
     direction -1.53517e-011 -4.21842e-011 1   
     length 1.2498   
     axis -90 -7.62852e-016 -20   XYZ
    dof rx
    limits (-90.0 20.0)
  end
  begin
     id 11 
     name lowerback
     direction 0.0266356 0.99402 -0.105896   
     length 2.1545   
     axis 0 0 0   XYZ
    dof rx ry rz
    limits (-20.0 45.0)
           (-30.0 30.0)
           (-30.0 30.0)
  end
  begin
     id 12 
     name upperback
     direction 0.0130547 0.999192 0.0380027   
     length 2.1434   
     axis 0 0 0   XYZ
    dof rx ry rz
    limits (-20.0 45.0)
           (-30.0 30.0)
           (-30.0 30.0)
  end
  begin
     id 13 
     name thorax
     direction 0.000590299 0.996288 0.0860764   
     length 2.19049   
     axis 0 0 0   XYZ
    dof rx ry rz
    limits (-20.0 45.0)
           (-30.0 30.0)
           (-30.0 30.0)
  end
  begin
     id 14 
     name lowerneck
     direction -0.0432125 0.978219 0.203028   
     length 1.62441   
     axis 0 0 0   XYZ
    dof rx ry rz
    limits (-20.0 45.0)
           (-30.0 30.0)
           (-30.0 30.0)
  end
  begin
     id 15 
     name upperneck
     direction -0.0192309 0.991699 -0.127138   
     length 1.66666   
     axis 0 0 0   XYZ
    dof rx ry rz
    limits (-20.0 45.0)
           (-30.0 30.0)
           (-30.0 30.0)
  end
  begin
     id 16
     name head
     direction -0.00434499 0.997882 -0.0649107  
     length 1.67142  
     axis 0 0 0   XYZ
    dof rx ry rz
    limits (-20.0 45.0)
           (-30.0 30.0)
           (-30.0 30.0)
  end
  begin
     id 17 
     name lclavicle
     direction 0.970351 0.240904 -0.0196058  
     length 4.04862  
     axis 0 0 0   XYZ
    dof ry rz
    limits (-20.0 10.0)
           (0.0 20.0)
  end
  begin
     id 18 
     name lhumerus
     direction 1 -4.4896e-011 -1.40911e-018   
     length 5.58345   
     axis 180 -30 -90   XYZ
    dof rx ry rz
    limits (-60.0 90.0)
           (-90.0 90.0)
           (-90.0 90.0)
  end
  begin
     id 19
     name lradius
     direction 1 -4.48968e-011 5.88912e-028   
     length 3.71087   
     axis 180 -30 -90   XYZ
    dof rx
    limits (-10.0 170.0)
  end
  begin
     id 20
     name lwrist
     direction 1 -4.48955e-011 -8.83775e-028   
     length 1.85544   
     axis 5.52448e-016 90 90   XYZ
    dof ry
    limits (-180.0 0.0)
 end
  begin
     id 21 
     name lhand
     direction 1 -4.49035e-011 -1.76755e-027   
     length 0.562322   
     axis 1.12785e-015 90 90   XYZ
    dof rx rz
    limits (-90.0 90.0)
           (-45.0 45.0)
  end
  begin
     id 22 
     name lfingers
     direction 1 -4.48824e-011 -3.5351e-027   
     length 0.453359   
     axis 2.2557e-015 90 90   XYZ
    dof rx
    limits (0.0 90.0)
  end
  begin
     id 23
     name lthumb
     direction 0.707107 -6.34888e-011 0.707107   
     length 0.650935   
     axis -90 45 2.85299e-015   XYZ
    dof rx rz
    limits (-45.0 45.0)
           (-45.0 45.0)
  end
  begin
     id 24 
     name rclavicle
     direction -0.96165 0.268562 -0.0557131   
     length 4.05446  
     axis 0 0 0   XYZ 
    dof ry rz
    limits (-10.0 20.0)
           (-20.0 0.0)
  end
  begin
     id 25 
     name rhumerus
     direction -1 -4.48957e-011 -3.36329e-027  
     length 5.20357   
     axis 180 30 90   XYZ
    dof rx ry rz
    limits (-90.0 60.0)
           (-90.0 90.0)
           (-90.0 90.0)
  end
  begin
     id 26 
     name rradius
     direction -1 -4.48974e-011 4.51441e-027   
     length 3.64937   
     axis 180 30 90   XYZ
    dof rx
    limits (-10.0 170.0)
  end
  begin
     id 27 
     name rwrist
     direction -1 -4.4896e-011 -8.83775e-028   
     length 1.82468   
     axis 5.52448e-016 -90 -90   XYZ
    dof ry
    limits (-180.0 0.0)
  end
  begin
     id 28
     name rhand
     direction -1 -4.48996e-011 -1.76755e-027   
     length 0.617996   
     axis 1.12785e-015 -90 -90   XYZ
    dof rx rz
    limits (-90.0 90.0)
           (-45.0 45.0)
  end
  begin
     id 29
     name rfingers
     direction -1 -4.48957e-011 -3.5351e-027   
     length 0.498244   
     axis 2.2557e-015 -90 -90   XYZ
    dof rx
    limits (0.0 90.0)
  end
  begin
     id 30
     name rthumb
     direction -0.707107 -6.34931e-011 0.707107   
     length 0.715382   
     axis -90 -45 -2.85299e-015   XYZ
    dof rx rz
    limits (-45.0 45.0)
           (-45.0 45.0)
  end
:hierarchy
  begin
    root lhipjoint rhipjoint lowerback
    lhipjoint lfemur
    lfemur ltibia
    ltibia lfoot
    lfoot ltoes
    rhipjoint rfemur
    rfemur rtibia
    rtibia rfoot
    rfoot rtoes
    lowerback upperback
    upperback thorax
    thorax lowerneck lclavicle rclavicle
    lowerneck upperneck
    upperneck head
    lclavicle lhumerus
    lhumerus lradius
    lradius lwrist
    lwrist lhand lthumb
    lhand lfingers
    rclavicle rhumerus
    rhumerus rradius
    rradius rwrist
    rwrist rhand rthumb
    rhand rfingers
  end

#!OML:ASF H:\ManfredETheater\Project 1\Capture day 2\Session 1\Male1.ASF
:FULLY-SPECIFIED
:DEGREES
127
root -4.32829 5.83334 -6.01212 -15.68 -46.3207 213.458
lowerback 46.6672 1.44669 6.92915
upperback 15.8847 4.56531 9.28692
thorax -3.71689 0.91587 4.71456
lowerneck -16.9034 1.84282 -1.40858
upperneck 21.7351 2.49415 1.88175
head 9.62517 1.20935 1.20777
rclavicle 5.40694e-014 -4.77083e-014
rhumerus 73.1271 -6.68253 -21.7738
rradius 70.6949
rwrist 19.1922
rhand -57.3881 -18.042
rfingers 7.12502
rthumb -29.662 -405.69
lclavicle 5.40694e-014 -4.77083e-014
lhumerus 8.16608 4.29221 57.2372
lradius 114.973
lwrist -22.5654
lhand -17.6533 -83.5833
lfingers 7.12502
lthumb 8.60488 -53.7787
rfemur -87.5984 -31.2024 16.6037
rtibia 104.076
rfoot -3.88912 -11.2558
rtoes 12.0188
lfemur -85.1431 41.635 -16.8922
ltibia 113.694
lfoot 20.7313 -8.23172
ltoes -4.87765
128
root -4.49151 5.55072 -6.43065 -13.8425 -47.808 214.08
lowerback 47.0729 1.6664 5.80339
upperback 16.0208 4.08417 8.44721
thorax -3.65056 0.592287 4.5692
lowerneck -16.5924 2.07833 -0.989988
upperneck 21.8833 2.79955 1.4599
head 9.62754 1.32914 1.02768
rclavicle 8.26944e-014 -1.28812e-013
rhumerus 71.4179 -8.58892 -21.2624
rradius 71.5992
rwrist 19.3749
rhand -57.207 -18.3228
rfingers 7.12502
rthumb -29.4891 -406.001
lclavicle 8.26944e-014 -1.28812e-013
lhumerus 9.2874 6.07321 54.5827
lradius 113.84
lwrist -22.1861
lhand -18.3572 -83.8768
lfingers 7.12502
lthumb 7.92558 -54.0454
rfemur -90.1454 -29.699 17.8152
rtibia 105.303
rfoot -3.67877 -12.0167
rtoes 12.546
lfemur -86.4245 43.1791 -17.8911
ltibia 114.391
lfoot 20.1238 -8.09123
ltoes -6.12562
129
root -4.65008 5.25344 -6.83923 -12.1031 -49.0646 214.733
lowerback 48.3598 1.80041 4.77003
upperback 15.246 3.59399 7.58303
thorax -3.60085 0.223023 4.56626
lowerneck -16.2911 2.24714 -0.685233
upperneck 22.268 2.98694 1.26946
head 9.71297 1.40772 0.93417
rclavicle 2.54444e-014 -1.4074e-013
rhumerus 69.5226 -10.2949 -20.8826
rradius 72.253
rwrist 19.8944
rhand -56.7791 -18.0428
rfingers 7.12502
rthumb -29.0806 -405.793
lclavicle 2.54444e-014 -1.4074e-013
lhumerus 10.1526 7.78126 52.1162
lradius 112.733
lwrist -22.5721
lhand -19.5099 -81.4284
lfingers 7.12502
lthumb 6.81291 -51.558
rfemur -92.3774 -28.5382 18.895
rtibia 106.547
rfoot -3.50977 -12.7143
rtoes 13.1425
lfemur -87.361 44.2766 -18.9542
ltibia 114.972
lfoot 19.2978 -8.25953
ltoes -7.40633
130
root -4.80056 4.93616 -7.23689 -10.3105 -50.0491 215.148
lowerback 48.7704 1.95044 3.64795
upperback 15.3703 3.01861 7.11995
thorax -3.52591 -0.174053 4.82862
lowerneck -16.1018 2.3503 -0.563272
upperneck 22.8702 3.0887 1.2522
head 9.89235 1.44717 0.9242
rclavicle -4.13472e-014 -1.90833e-014
rhumerus 67.5178 -11.7902 -20.5898
rradius 72.6374
rwrist 20.3395
rhand -56.0395 -17.065
rfingers 7.12502
rthumb -28.374 -404.935
lclavicle -4.13472e-014 -1.90833e-014
lhumerus 10.8346 9.44341 49.9062
lradius 111.642
lwrist -23.3789
lhand -21.0339 -76.6801
lfingers 7.12502
lthumb 5.34158 -46.7674
rfemur -94.1277 -27.7839 19.995
rtibia 107.736
rfoot -3.33698 -13.3186
rtoes 13.7926
lfemur -87.8143 44.8757 -19.8218
ltibia 115.399
lfoot 18.291 -8.61656
ltoes -8.53871
131
root -4.93949 4.59539 -7.62377 -8.48287 -50.77 215.305
lowerback 49.4735 2.00207 2.71011
upperback 15.4068 2.42201 6.85965
thorax -3.57538 -0.600744 5.23935
lowerneck -15.9622 2.41073 -0.585677
upperneck 23.5987 3.16399 1.24475
head 10.1255 1.45855 0.940393
rclavicle -1.81292e-013 7.4743e-014
rhumerus 65.4313 -13.0066 -20.3317
rradius 72.7574
rwrist 20.3077
rhand -55.4738 -15.4865
rfingers 7.12502
rthumb -27.8332 -403.445
lclavicle -1.81292e-013 7.4743e-014
lhumerus 11.4302 11.028 47.9825
lradius 110.477
lwrist -24.1412
lhand -22.6147 -70.0925
lfingers 7.12502
lthumb 3.81518 -40.1469
rfemur -95.2961 -27.4099 21.1176
rtibia 108.819
rfoot -3.10237 -13.7971
rtoes 14.4857
lfemur -87.6235 44.9874 -20.3741
ltibia 115.621
lfoot 17.1608 -9.0326
ltoes -9.53399
132
root -5.0658 4.23864 -7.99703 -6.31866 -51.2512 215.108
lowerback 50.2409 1.91879 2.00989
upperback 15.3271 1.78456 6.78555
thorax -3.74031 -1.0451 5.76149
lowerneck -15.8186 2.48233 -0.661966
upperneck 24.3887 3.30283 1.1002
head 10.3837 1.47282 0.925922
rclavicle -9.85972e-014 1.12562e-013
rhumerus 63.3671 -13.8273 -20.154
rradius 72.6413
rwrist 19.6008
rhand -55.1031 -13.6459
rfingers 7.12502
rthumb -27.4788 -401.661
lclavicle -9.85972e-014 1.12562e-013
lhumerus 11.7703 12.497 46.3037
lradius 109.371
lwrist -24.6148
lhand -24.2897 -62.871
lfingers 7.12502
lthumb 2.19754 -32.9025
rfemur -96.1964 -27.3298 22.4383
rtibia 109.793
rfoot -2.71063 -14.1592
rtoes 15.1764
lfemur -87.1969 44.6267 -20.7396
ltibia 115.661
lfoot 16.0848 -9.34325
ltoes -10.3676
133
root -5.1782 3.87335 -8.35424 -3.576 -51.585 214.464
lowerback 50.945 1.64304 1.68254
upperback 15.092 1.11057 6.76064
thorax -4.03676 -1.47267 6.18288
lowerneck -15.4979 2.5587 -0.866566
upperneck 25.0368 3.4718 0.985557
head 10.555 1.49101 0.942058
rclavicle 5.40694e-014 -7.196e-014
rhumerus 61.2385 -14.192 -20.2182
rradius 72.3921
rwrist 18.2085
rhand -54.8712 -11.5787
rfingers 7.12502
rthumb -27.2569 -399.629
lclavicle 5.40694e-014 -7.196e-014
lhumerus 12.013 13.7889 44.6384
lradius 108.204
lwrist -24.5927
lhand -26.1376 -54.4885
lfingers 7.12502
lthumb 0.412861 -24.5091
rfemur -97.0462 -27.3603 24.0912
rtibia 110.659
rfoot -2.15864 -14.4103
rtoes 15.7908
lfemur -86.8477 43.9336 -20.9716
ltibia 115.567
lfoot 15.206 -9.47166
ltoes -11.0127
134
root -5.27827 3.50801 -8.70179 -0.245178 -51.8229 213.494
lowerback 51.577 1.21027 1.60842
upperback 14.6397 0.401169 6.71175
thorax -4.543 -1.87057 6.48501
lowerneck -15.0627 2.70939 -0.912303
upperneck 25.5983 3.75261 0.67614
head 10.6802 1.54943 0.87296
rclavicle 3.18055e-015 8.34896e-015
rhumerus 58.9973 -14.0447 -20.6475
rradius 72.1716
rwrist 16.2916
rhand -54.6993 -9.66321
rfingers 7.12502
rthumb -27.0926 -397.739
lclavicle 3.18055e-015 8.34896e-015
lhumerus 12.0975 14.8315 42.8214
lradius 106.997
lwrist -24.1071
lhand -28.2623 -44.4166
lfingers 7.12502
lthumb -1.63921 -14.4432
rfemur -98.022 -27.2956 26.0554
rtibia 111.453
rfoot -1.52998 -14.5897
rtoes 16.2708
lfemur -86.7746 43.0096 -21.174
ltibia 115.358
lfoot 14.6593 -9.39643
ltoes -11.4748
135
root -5.3664 3.15096 -9.03768 3.64161 -52.1601 212.317
lowerback 51.9982 0.684305 1.69359
upperback 14.027 -0.311034 6.50611
thorax -5.19091 -2.20994 6.54995
lowerneck -14.3786 2.96512 -0.745914
upperneck 25.8791 4.15457 0.247504
head 10.6617 1.67476 0.732493
rclavicle 6.04305e-014 -1.636e-013
rhumerus 56.5235 -13.4236 -21.5645
rradius 72.1452
rwrist 14.1198
rhand -54.4101 -8.31198
rfingers 7.12502
rthumb -26.8158 -396.431
lclavicle 6.04305e-014 -1.636e-013
lhumerus 12.1267 15.6249 40.7454
lradius 105.802
lwrist -23.2292
lhand -30.0756 -33.6805
lfingers 7.12502
lthumb -3.39049 -3.72772
rfemur -99.2005 -26.8613 28.2488
rtibia 112.212
rfoot -0.974939 -14.6716
rtoes 16.4823
lfemur -87.0724 42.1373 -21.4194
ltibia 115.09
lfoot 14.444 -9.15758
ltoes -11.6929
136
root -5.43448 2.83304 -9.35907 7.46792 -53.0939 212.496
lowerback 51.17 0.575299 0.702633
upperback 13.4145 -1.00447 5.94153
thorax -5.71502 -2.44881 6.68184
lowerneck -13.5506 3.27394 -0.356216
upperneck 25.9625 4.58892 -0.239678
head 10.5524 1.83615 0.531558
rclavicle 1.59028e-014 9.97899e-014
rhumerus 53.7228 -12.355 -23.0727
rradius 72.3829
rwrist 12.0199
rhand -53.7806 -7.98839
rfingers 7.12502
rthumb -26.2133 -396.198
lclavicle 1.59028e-014 9.97899e-014
lhumerus 12.0256 16.1679 38.3945
lradius 104.651
lwrist -22.1592
lhand -31.56 -22.7238
lfingers 7.12502
lthumb -4.82388 7.20131
rfemur -101.666 -25.6273 29.9518
rtibia 113.084
rfoot -0.359068 -14.5102
rtoes 16.3778
lfemur -88.5859 41.4488 -23.2575
ltibia 114.827
lfoot 14.4395 -8.59724
ltoes -11.7062
137
root -5.48484 2.57089 -9.67458 9.97639 -55.2148 216.035
lowerback 48.4857 1.2887 -2.7096
upperback 12.8194 -1.72242 4.81101
thorax -5.91277 -2.60152 7.31057
lowerneck -12.7613 3.61271 0.264562
upperneck 25.9399 5.00481 -0.683333
head 10.4214 2.02368 0.303931
rclavicle 2.24229e-013 -1.23644e-013
rhumerus 50.4589 -10.952 -25.1677
rradius 72.9702
rwrist 10.2663
rhand -52.6172 -9.08542
rfingers 7.12502
rthumb -25.099 -397.456
lclavicle 2.24229e-013 -1.23644e-013
lhumerus 11.9152 16.5055 35.8644
lradius 103.553
lwrist -21.2247
lhand -32.4916 -13.1343
lfingers 7.12502
lthumb -5.72336 16.7684
rfemur -106.209 -23.456 30.026
rtibia 114.097
rfoot 0.600361 -13.8769
rtoes 15.8667
lfemur -91.704 40.5856 -28.2677
ltibia 114.488
lfoot 14.3697 -7.4502
ltoes -11.7856
138
root -5.53488 2.37862 -9.97756 9.0802 -59.2126 225.615
lowerback 42.4716 2.68512 -9.74131
upperback 12.7779 -2.49592 2.60569
thorax -5.38088 -2.72208 8.87594
lowerneck -12.1519 3.9198 0.908064
upperneck 25.8977 5.33657 -0.952707
head 10.3178 2.19991 0.126948
rclavicle 1.11319e-013 -1.57437e-013
rhumerus 46.671 -9.3013 -27.7032
rradius 73.9084
rwrist 9.0264
rhand -50.7916 -11.5982
rfingers 7.12502
rthumb -23.3487 -400.202
lclavicle 1.11319e-013 -1.57437e-013
lhumerus 11.8071 16.6922 33.3765
lradius 102.518
lwrist -20.5938
lhand -32.8902 -5.80037
lfingers 7.12502
lthumb -6.10825 24.0916
rfemur -113.572 -20.5824 27.337
rtibia 115.149
rfoot 2.34098 -12.2329
rtoes 14.6782
lfemur -96.6265 38.8607 -37.9245
ltibia 113.984
lfoot 13.7051 -5.44417
ltoes -12.1891
139
root -5.61385 2.25495 -10.2438 0.8513 -64.448 245.26
lowerback 34.5229 3.77027 -20.3071
upperback 11.0576 -3.63119 -0.546965
thorax -3.6933 -3.08779 10.9789
lowerneck -11.8409 4.16557 1.52911
upperneck 25.9793 5.56236 -1.09039
head 10.3147 2.33926 -0.00537972
rclavicle 6.2816e-014 -6.95746e-015
rhumerus 42.3833 -7.47419 -30.4917
rradius 75.1288
rwrist 8.41817
rhand -48.332 -14.8623
rfingers 7.12502
rthumb -20.9873 -403.747
lclavicle 6.2816e-014 -6.95746e-015
lhumerus 11.6782 16.7918 31.1916
lradius 101.548
lwrist -20.3301
lhand -32.9443 -0.504521
lfingers 7.12502
lthumb -6.16044 29.3859
rfemur -123.967 -18.1758 21.5511
rtibia 115.756
rfoot 5.14353 -8.84196
rtoes 12.3483
lfemur -102.898 35.0666 -52.4875
ltibia 112.967
lfoot 12.1417 -2.79937
ltoes -13.2245
140
root -5.73514 2.28222 -10.4339 -16.9463 -67.6968 275.007
lowerback 25.8799 3.29436 -31.7867
upperback 8.68587 -5.22524 -3.85096
thorax -1.23668 -3.85049 12.6578
lowerneck -11.8811 4.31867 1.94302
upperneck 26.1975 5.65405 -1.02637
head 10.4161 2.41868 -0.0389301
rclavicle -8.74653e-015 -1.03368e-014
rhumerus 37.7496 -5.60351 -33.3409
rradius 76.4503
rwrist 8.43213
rhand -45.3519 -17.6906
rfingers 7.12502
rthumb -18.1222 -406.866
lclavicle -8.74653e-015 -1.03368e-014
lhumerus 11.5043 16.8842 29.5999
lradius 100.721
lwrist -20.4674
lhand -32.7518 3.28531
lfingers 7.12502
lthumb -5.97458 33.1811
rfemur -135.429 -17.718 14.5155
rtibia 116.436
rfoot 8.00716 -3.76173
rtoes 8.76922
lfemur -108.301 30.1657 -68.3269
ltibia 112.004
lfoot 9.9387 -1.41468
ltoes -14.521
